<?xml version="1.0" encoding="UTF-8"?>
<svg xmlns="http://www.w3.org/2000/svg" xmlns:xlink="http://www.w3.org/1999/xlink" width="30px" height="54px" viewBox="0 0 30 54" version="1.1">
<g id="surface1">
<path style=" stroke:none;fill-rule:nonzero;fill:rgb(93.72549%,81.960784%,11.764706%);fill-opacity:1;" d="M 5.167969 0.28125 L 9.980469 11.789062 L 3.851562 11.789062 L 5.878906 16.859375 L 18.308594 16.859375 Z M 21.511719 42.199219 L 19.457031 37.128906 L 16.605469 37.128906 L 10.695312 22.875 L 8.148438 22.875 L 14.0625 37.128906 L 6.832031 37.128906 L 20.195312 53.71875 L 15.378906 42.199219 Z M 21.511719 42.199219 "/>
<path style=" stroke:none;fill-rule:nonzero;fill:rgb(0%,0%,0%);fill-opacity:1;" d="M 23.167969 21.929688 C 23.308594 21.929688 23.660156 21.746094 23.660156 19.984375 C 23.660156 18.21875 23.308594 18.035156 23.167969 18.035156 L 14.601562 18.035156 L 16.222656 21.929688 Z M 18.175781 26.609375 L 23.921875 26.609375 C 24.078125 26.609375 24.429688 26.414062 24.429688 24.660156 C 24.429688 22.910156 24.078125 22.703125 23.921875 22.703125 L 16.550781 22.703125 Z M 23.167969 32.070312 L 15.421875 32.070312 L 17.058594 35.964844 L 23.167969 35.964844 C 23.308594 35.964844 23.660156 35.78125 23.660156 34.015625 C 23.660156 32.253906 23.308594 32.070312 23.167969 32.070312 Z M 23.921875 27.390625 L 13.480469 27.390625 L 15.105469 31.285156 L 23.878906 31.285156 C 24.03125 31.285156 24.382812 31.101562 24.382812 29.339844 C 24.382812 27.578125 24.132812 27.390625 23.921875 27.390625 Z M 23.921875 27.390625 "/>
<path style=" stroke:none;fill-rule:nonzero;fill:rgb(0%,0%,0%);fill-opacity:1;" d="M 23.167969 32.070312 L 15.421875 32.070312 L 17.058594 35.964844 L 23.167969 35.964844 C 23.308594 35.964844 23.660156 35.78125 23.660156 34.015625 C 23.660156 32.253906 23.308594 32.070312 23.167969 32.070312 Z M 23.921875 27.390625 L 13.480469 27.390625 L 15.105469 31.285156 L 23.878906 31.285156 C 24.03125 31.285156 24.382812 31.101562 24.382812 29.339844 C 24.382812 27.578125 24.132812 27.390625 23.921875 27.390625 Z M 23.921875 27.390625 "/>
<path style=" stroke:none;fill-rule:nonzero;fill:rgb(0%,0%,0%);fill-opacity:1;" d="M 8.773438 26.640625 L 6.910156 21.929688 L 11.210938 21.929688 L 13.164062 26.640625 L 17.253906 26.640625 L 13.6875 18.066406 L 4.792969 18.066406 C 4.113281 18.066406 3.695312 18.066406 3.421875 19.078125 C 3.050781 20.289062 3.003906 22.582031 3.003906 27.03125 C 3.003906 31.480469 3.003906 33.765625 3.421875 34.984375 C 3.730469 35.996094 4.113281 35.996094 4.792969 35.996094 L 12.625 35.996094 L 8.773438 26.609375 Z M 8.773438 26.640625 "/>
</g>
</svg>
